<svg width="120" height="40" viewBox="0 0 120 40" fill="none" xmlns="http://www.w3.org/2000/svg">
  <!-- Main S-shaped graphic -->
  <g>
    <!-- Upper portion - dark gray -->
    <path d="M15 8C15 8 18 6 22 8C26 10 28 12 28 14" stroke="#4B5563" stroke-width="2" stroke-linecap="round" fill="none"/>
    <path d="M15 10C15 10 18 8 22 10C26 12 28 14 28 16" stroke="#4B5563" stroke-width="2" stroke-linecap="round" fill="none"/>
    
    <!-- Lower portion - blue gradient -->
    <path d="M28 14C28 14 26 18 22 20C18 22 15 22 15 20" stroke="#1E40AF" stroke-width="2" stroke-linecap="round" fill="none"/>
    <path d="M28 16C28 16 26 20 22 22C18 24 15 24 15 22" stroke="#3B82F6" stroke-width="2" stroke-linecap="round" fill="none"/>
  </g>
  
  <!-- Circular element -->
  <g transform="translate(12, 18)">
    <!-- Outer dark blue crescent -->
    <path d="M4 0A4 4 0 0 1 4 8A4 4 0 0 1 4 0Z" fill="#1E40AF"/>
    <!-- Inner lighter blue crescent -->
    <path d="M4 1A3 3 0 0 1 4 7A3 3 0 0 1 4 1Z" fill="#3B82F6"/>
    <!-- Central white circle -->
    <circle cx="4" cy="4" r="1.5" fill="white"/>
  </g>
  
  <!-- Text "Adswadi" -->
  <text x="35" y="25" font-family="Arial, sans-serif" font-size="16" font-weight="bold" fill="#1E40AF">Adswadi</text>
</svg> 