<svg width="32" height="32" viewBox="0 0 32 32" fill="none" xmlns="http://www.w3.org/2000/svg">
  <!-- Background circle -->
  <circle cx="16" cy="16" r="16" fill="#1E40AF"/>
  
  <!-- S-shaped graphic -->
  <g>
    <!-- Upper portion - white -->
    <path d="M8 10C8 10 12 8 16 10C20 12 22 14 22 16" stroke="white" stroke-width="1.5" stroke-linecap="round" fill="none"/>
    <path d="M8 12C8 12 12 10 16 12C20 14 22 16 22 18" stroke="white" stroke-width="1.5" stroke-linecap="round" fill="none"/>
    
    <!-- Lower portion - light blue -->
    <path d="M22 16C22 16 20 20 16 22C12 24 8 24 8 22" stroke="#93C5FD" stroke-width="1.5" stroke-linecap="round" fill="none"/>
    <path d="M22 18C22 18 20 22 16 24C12 26 8 26 8 24" stroke="#60A5FA" stroke-width="1.5" stroke-linecap="round" fill="none"/>
  </g>
  
  <!-- Circular element -->
  <g transform="translate(6, 18)">
    <!-- Outer white crescent -->
    <path d="M2 0A2 2 0 0 1 2 4A2 2 0 0 1 2 0Z" fill="white"/>
    <!-- Inner light blue crescent -->
    <path d="M2 0.5A1.5 1.5 0 0 1 2 3.5A1.5 1.5 0 0 1 2 0.5Z" fill="#93C5FD"/>
    <!-- Central blue circle -->
    <circle cx="2" cy="2" r="0.5" fill="#1E40AF"/>
  </g>
</svg>
